<svg width="38" height="28" viewBox="0 0 38 28" fill="none" xmlns="http://www.w3.org/2000/svg">
<path d="M10.7173 0C16.6364 0 21.4343 6.26836 21.4343 14.0002C21.4343 21.7321 16.636 28 10.7173 28C4.79865 28 0 21.7321 0 14.0002C0 6.26836 4.79829 0 10.7173 0ZM27.8321 0.820098C30.7916 0.820098 33.1908 6.72045 33.1908 14.0002H33.1911C33.1911 21.2781 30.792 27.1804 27.8325 27.1804C24.873 27.1804 22.4738 21.2781 22.4738 14.0002C22.4738 6.72234 24.8726 0.820098 27.8321 0.820098ZM36.1153 2.19291C37.156 2.19291 38 7.47914 38 14.0002C38 20.5194 37.1563 25.8076 36.1153 25.8076C35.0743 25.8076 34.2311 20.5209 34.2311 14.0002C34.2311 7.47961 35.0747 2.19291 36.1153 2.19291Z" fill="white"/>
</svg>
